# xmcd
#
# Track frame offsets:
#	150
#	14914
#	30354
#	39542
#	53360
#	66106
#	76207
#	90489
#	104479
#	114827
#	125383
#	139457
#
# Disc length: 2007 seconds
#
# Revision: 0
# Processed by: cddbd v1.5.2PL0 Copyright (c) Steve Scherf et al.
# Submitted via: EasyCDDAExtractor 16.0.9.1
#
DISCID=9507d50c
DTITLE=Ray Charles - N-097  Brother Ray's Blues
DYEAR=1900
DGENRE=Blues
TTITLE0=Ray Charles - I'm Wonderin' And Wonderin'
TTITLE1=Ray Charles - I Found My Baby There
TTITLE2=Ray Charles - All to Myself Alone
TTITLE3=Ray Charles - I'm Going Down to the River
TTITLE4=Ray Charles - Can Anyone Ask For More?
TTITLE5=N-097 Brother Ray's Blues - Ain't That Fine
TTITLE6=Ray Charles - Walkin' And Talkin'
TTITLE7=Ray Charles - Blues Is My Middle Name
TTITLE8=Ray Charles - Now She's Gone
TTITLE9=Ray Charles - Hey Now
TTITLE10=Ray Charles - Kiss Me Baby
TTITLE11=N-097 Brother Ray's Blues - She's On The Ball
EXTD=
EXTT0=
EXTT1=
EXTT2=
EXTT3=
EXTT4=
EXTT5=
EXTT6=
EXTT7=
EXTT8=
EXTT9=
EXTT10=
EXTT11=
PLAYORDER=
